<?xml version="1.0" encoding="utf-8"?>
<!-- Generator: Adobe Illustrator 16.0.0, SVG Export Plug-In . SVG Version: 6.00 Build 0)  -->
<!DOCTYPE svg PUBLIC "-//W3C//DTD SVG 1.1//EN" "http://www.w3.org/Graphics/SVG/1.1/DTD/svg11.dtd">
<svg version="1.1" id="Calque_1" xmlns="http://www.w3.org/2000/svg" xmlns:xlink="http://www.w3.org/1999/xlink" x="0px" y="0px"
	 width="24px" height="24px" viewBox="0 0 24 24" enable-background="new 0 0 24 24" xml:space="preserve">
<path fill="#FFFDFD" d="M12,0C5.373,0,0,5.373,0,12s5.373,12,12,12s12-5.373,12-12S18.627,0,12,0z M14.218,18.616
	c-0.354,0.069-0.468-0.149-0.468-0.336v-1.921c0-0.653-0.229-1.079-0.48-1.297c1.56-0.172,3.197-0.765,3.197-3.454
	c0-0.765-0.273-1.389-0.721-1.879c0.072-0.177,0.313-0.889-0.069-1.853c0,0-0.587-0.188-1.923,0.717
	C13.193,8.44,12.595,8.363,12,8.36c-0.595,0.003-1.193,0.08-1.753,0.235C8.91,7.69,8.322,7.878,8.322,7.878
	C7.943,8.842,8.182,9.554,8.255,9.73c-0.448,0.49-0.722,1.114-0.722,1.879c0,2.682,1.634,3.282,3.189,3.459
	c-0.2,0.175-0.381,0.482-0.444,0.936c-0.4,0.18-1.413,0.488-2.037-0.582c0,0-0.37-0.672-1.073-0.722c0,0-0.683-0.009-0.048,0.426
	c0,0,0.46,0.215,0.777,1.024c0,0,0.405,1.25,2.353,0.826v1.303c0,0.185-0.113,0.402-0.462,0.337C7.006,17.691,5,15.066,5,11.975
	c0-3.867,3.135-7,7-7s7,3.133,7,7C19,15.066,16.997,17.689,14.218,18.616z"/>
</svg>
